# xmcd CD database file generated by Grip 3.0.7
# 
# Track frame offsets:
#       150
#       19617
#       50337
# 
# Disc length: 886 seconds
# 
# Revision: 1
# Processed by: cddbd v1.5PL3 Copyright (c) Steve Scherf et al.
# Submitted via: Grip 3.0.7
# 
DISCID=19037403
DTITLE=Guns N' Roses - Since I Don't Have You
DYEAR=1994
DGENRE=Rock
TTITLE0=Since I Don't Have You
TTITLE1=Human Being
TTITLE2=You Can't Put Your Arms Around A Memory
EXTD=YEAR: 1994
EXTT0=
EXTT1=
EXTT2=
PLAYORDER=
